<svg height="490pt" viewBox="0 0 490.20521 490" width="490pt" xmlns="http://www.w3.org/2000/svg"><path d="m46.632812 12.550781c-6.25-6.25-16.386718-6.25-22.632812 0l-11.3125 11.3125c-6.253906 6.25-6.253906 16.382813 0 22.632813l181.023438 181.015625 33.9375-33.9375zm0 0" fill="#7ed63e"/><path d="m238.957031 182.257812-11.308593 11.316407-33.9375 33.9375-11.320313 11.3125 67.886719 67.886719 56.570312-56.566407zm45.257813 79.199219-39.59375-39.601562zm-62.222656-16.96875 39.597656 39.59375zm0 0" fill="#939598"/><path d="m340.78125 261.457031-11.308594 11.3125-56.570312 56.566407-11.3125 11.3125 16.96875 28.289062 90.511718-90.511719zm0 0" fill="#414042"/><path d="m312.503906 436.855469 124.488282-124.488281-50.914063-50.910157-17.007813 17-90.480468 90.480469-16.96875 16.964844zm73.535156-141.414063 16.976563 16.964844-90.511719 90.472656-16.96875-16.976562zm0 0" fill="#d1d3d4"/><path d="m369.070312 278.425781-90.511718 90.511719zm0 0" fill="#d1d3d4"/><path d="m380.382812 414.183594 33.941407-33.941406 67.882812 67.882812-33.941406 33.941406zm0 0" fill="#939598"/><g fill="#d1d3d4"><path d="m295.53125 385.910156 90.511719-90.511718 16.96875 16.972656-90.507813 90.507812zm0 0"/><path d="m250.269531 306.710938 56.570313-56.570313 22.625 22.628906-56.566406 56.566407zm0 0"/><path d="m329.472656 272.769531-56.570312 56.566407zm0 0"/></g><path d="m414.328125 380.25 11.3125-11.3125-22.625-22.632812-56.578125 56.574218 22.632812 22.625 11.3125-11.3125zm0 0" fill="#414042"/><path d="m380.382812 414.191406 33.945313-33.941406zm0 0" fill="#d1d3d4"/><path d="m487.863281 442.457031-62.222656-62.234375 5.652344-5.65625c3.125-3.121094 3.125-8.1875 0-11.308594l-16.964844-16.96875 28.261719-28.265624c3.125-3.125 3.125-8.1875 0-11.3125l-50.917969-50.910157c-3.125-3.125-8.1875-3.125-11.3125 0l-12.550781 12.550781-22.929688-13.75c-3.148437-1.890624-7.179687-1.398437-9.777344 1.199219l-5.65625 5.65625-16.964843-16.96875-67.882813-67.886719c-1.5-1.503906-3.535156-2.347656-5.660156-2.347656-2.121094 0-4.15625.84375-5.660156 2.347656l-5.65625 5.65625-175.335938-175.355468c-9.496094-9.066406-24.445312-9.066406-33.941406 0l-11.3125 11.304687c-9.375 9.375-9.375 24.570313 0 33.945313l175.359375 175.359375-5.65625 5.65625c-1.5 1.5-2.347656 3.535156-2.347656 5.660156s.847656 4.160156 2.347656 5.660156l67.886719 67.878907 16.96875 16.96875-5.65625 5.65625c-2.597656 2.59375-3.097656 6.625-1.207032 9.777343l13.761719 22.925781-12.554687 12.554688c-3.121094 3.121094-3.121094 8.1875 0 11.308594l50.914062 50.898437c3.125 3.121094 8.1875 3.121094 11.3125 0l28.277344-28.28125 16.953125 16.984375c3.125 3.125 8.1875 3.125 11.3125 0l5.65625-5.65625 62.230469 62.222656c3.125 3.125 8.1875 3.125 11.3125 0l33.9375-33.933593c1.507812-1.5 2.359375-3.535157 2.367187-5.664063.003907-2.128906-.839843-4.167968-2.34375-5.671875zm-145.839843-170.929687 14.167968 8.527344-76 76-8.488281-14.140626zm-323.679688-230.671875c-1.503906-1.5-2.347656-3.535157-2.347656-5.660157 0-2.121093.84375-4.160156 2.347656-5.660156l11.3125-11.328125c3.121094-3.121093 8.1875-3.121093 11.3125 0l175.367188 175.367188-22.632813 22.625zm220.613281 152.710937 56.578125 56.578125-5.664062 5.65625-39.59375-39.601562c-3.121094-3.125-8.1875-3.125-11.316406-.003907-3.125 3.125-3.125 8.191407-.003907 11.316407l39.601563 39.601562-11.3125 11.34375-39.597656-39.601562c-3.128907-3.121094-8.195313-3.121094-11.316407.003906-3.125 3.125-3.125 8.191406.003907 11.316406l39.597656 39.59375-5.65625 5.664063-56.574219-56.578125zm33.945313 124.457032-11.3125-11.3125 45.257812-45.253907 11.3125 11.3125zm39.601562 107.480468-39.601562-39.601562 11.289062-11.300782 90.535156-90.546874 11.3125-11.308594 39.601563 39.597656zm45.285156-22.625 45.226563-45.222656 11.3125 11.3125-45.257813 45.222656zm90.480469 67.882813-56.574219-56.570313 22.632813-22.625 56.566406 56.570313zm0 0" fill="#231f20"/><path d="m408.664062 318.023438c3.121094-3.125 3.121094-8.1875 0-11.3125l-16.96875-16.976563c-3.125-3.121094-8.1875-3.121094-11.3125 0l-90.503906 90.515625c-3.125 3.121094-3.125 8.1875 0 11.308594l16.96875 16.96875c3.125 3.125 8.1875 3.125 11.3125 0zm-101.816406 67.878906 79.199219-79.199219 5.65625 5.65625-79.199219 79.199219zm0 0" fill="#231f20"/></svg>